{
    "streams": [
        {
            "index": 0,
            "codec_name": "h264",
            "codec_long_name": "H.264 / AVC / MPEG-4 AVC / MPEG-4 part 10",
            "profile": "High",
            "codec_type": "video",
            "codec_time_base": "1001/120000",
            "codec_tag_string": "avc1",
            "codec_tag": "0x31637661",
            "width": 1920,
            "height": 1080,
            "coded_width": 1920,
            "coded_height": 1088,
            "has_b_frames": 0,
            "sample_aspect_ratio": "1:1",
            "display_aspect_ratio": "16:9",
            "pix_fmt": "yuvj420p",
            "level": 42,
            "color_range": "pc",
            "color_space": "bt709",
            "color_transfer": "bt709",
            "color_primaries": "bt709",
            "chroma_location": "left",
            "refs": 1,
            "is_avc": "true",
            "nal_length_size": "4",
            "r_frame_rate": "60000/1001",
            "avg_frame_rate": "60000/1001",
            "time_base": "1/60000",
            "start_pts": 0,
            "start_time": "0.000000",
            "duration_ts": 42462420,
            "duration": "707.707000",
            "bit_rate": "44998039",
            "bits_per_raw_sample": "8",
            "nb_frames": "42420",
            "disposition": {
                "default": 1,
                "dub": 0,
                "original": 0,
                "comment": 0,
                "lyrics": 0,
                "karaoke": 0,
                "forced": 0,
                "hearing_impaired": 0,
                "visual_impaired": 0,
                "clean_effects": 0,
                "attached_pic": 0,
                "timed_thumbnails": 0
            },
            "tags": {
                "rotate": "180",
                "creation_time": "2021-09-17T09:35:17.000000Z",
                "language": "eng",
                "handler_name": "\u000bGoPro AVC  ",
                "encoder": "GoPro AVC encoder",
                "timecode": "10:44:22:11"
            },
            "side_data_list": [
                {
                    "side_data_type": "Display Matrix",
                    "displaymatrix": "\n00000000:       -65536           0           0\n00000001:            0      -65536           0\n00000002:    125829120    70778880  1073741824\n",
                    "rotation": -180
                }
            ]
        },
        {
            "index": 1,
            "codec_name": "aac",
            "codec_long_name": "AAC (Advanced Audio Coding)",
            "profile": "LC",
            "codec_type": "audio",
            "codec_time_base": "1/48000",
            "codec_tag_string": "mp4a",
            "codec_tag": "0x6134706d",
            "sample_fmt": "fltp",
            "sample_rate": "48000",
            "channels": 2,
            "channel_layout": "stereo",
            "bits_per_sample": 0,
            "r_frame_rate": "0/0",
            "avg_frame_rate": "0/0",
            "time_base": "1/48000",
            "start_pts": 0,
            "start_time": "0.000000",
            "duration_ts": 33970176,
            "duration": "707.712000",
            "bit_rate": "189313",
            "max_bit_rate": "48000",
            "nb_frames": "33174",
            "disposition": {
                "default": 1,
                "dub": 0,
                "original": 0,
                "comment": 0,
                "lyrics": 0,
                "karaoke": 0,
                "forced": 0,
                "hearing_impaired": 0,
                "visual_impaired": 0,
                "clean_effects": 0,
                "attached_pic": 0,
                "timed_thumbnails": 0
            },
            "tags": {
                "creation_time": "2021-09-17T09:35:17.000000Z",
                "language": "eng",
                "handler_name": "\u000bGoPro AAC  ",
                "timecode": "10:44:22:11"
            }
        },
        {
            "index": 2,
            "codec_type": "data",
            "codec_tag_string": "tmcd",
            "codec_tag": "0x64636d74",
            "r_frame_rate": "0/0",
            "avg_frame_rate": "59/1",
            "time_base": "1/60000",
            "start_pts": 0,
            "start_time": "0.000000",
            "duration_ts": 42462420,
            "duration": "707.707000",
            "nb_frames": "1",
            "disposition": {
                "default": 1,
                "dub": 0,
                "original": 0,
                "comment": 0,
                "lyrics": 0,
                "karaoke": 0,
                "forced": 0,
                "hearing_impaired": 0,
                "visual_impaired": 0,
                "clean_effects": 0,
                "attached_pic": 0,
                "timed_thumbnails": 0
            },
            "tags": {
                "creation_time": "2021-09-17T09:35:17.000000Z",
                "language": "eng",
                "handler_name": "\u000bGoPro TCD  ",
                "timecode": "10:44:22:11"
            }
        },
        {
            "index": 3,
            "codec_name": "bin_data",
            "codec_long_name": "binary data",
            "codec_type": "data",
            "codec_tag_string": "gpmd",
            "codec_tag": "0x646d7067",
            "r_frame_rate": "0/0",
            "avg_frame_rate": "0/0",
            "time_base": "1/1000",
            "start_pts": 0,
            "start_time": "0.000000",
            "duration_ts": 707712,
            "duration": "707.712000",
            "bit_rate": "61359",
            "nb_frames": "707",
            "disposition": {
                "default": 1,
                "dub": 0,
                "original": 0,
                "comment": 0,
                "lyrics": 0,
                "karaoke": 0,
                "forced": 0,
                "hearing_impaired": 0,
                "visual_impaired": 0,
                "clean_effects": 0,
                "attached_pic": 0,
                "timed_thumbnails": 0
            },
            "tags": {
                "creation_time": "2021-09-17T09:35:17.000000Z",
                "language": "eng",
                "handler_name": "\u000bGoPro MET  "
            }
        },
        {
            "index": 4,
            "codec_type": "data",
            "codec_tag_string": "fdsc",
            "codec_tag": "0x63736466",
            "r_frame_rate": "0/0",
            "avg_frame_rate": "0/0",
            "time_base": "1/60000",
            "start_pts": 0,
            "start_time": "0.000000",
            "duration_ts": 42462420,
            "duration": "707.707000",
            "bit_rate": "13809",
            "nb_frames": "76303",
            "disposition": {
                "default": 1,
                "dub": 0,
                "original": 0,
                "comment": 0,
                "lyrics": 0,
                "karaoke": 0,
                "forced": 0,
                "hearing_impaired": 0,
                "visual_impaired": 0,
                "clean_effects": 0,
                "attached_pic": 0,
                "timed_thumbnails": 0
            },
            "tags": {
                "creation_time": "2021-09-17T09:35:17.000000Z",
                "language": "eng",
                "handler_name": "\u000bGoPro SOS  "
            }
        }
    ]
}
